<svg xmlns="http://www.w3.org/2000/svg" viewBox="0 0 128 128">
<path fill="#3776AB" d="M64 10c-20 0-20 9-20 9v18h40V31H52v-6h48s18 2 18 26-16 29-16 29H84v-9H44c-18 0-30 12-30 30s10 27 10 27h18v-20s1-20 20-20h40c18 0 26-12 26-27V45C128 12 96 10 64 10z"/>
<path fill="#FFD43B" d="M64 118c20 0 20-9 20-9V91H44v6h32v6H28s-18-2-18-26 16-29 16-29h18v9h40c18 0 30-12 30-30s-10-27-10-27H86v20s-1 20-20 20H26C8 40 0 52 0 67v16c0 33 32 35 64 35z"/>
<circle cx="52" cy="24" r="4" fill="#fff"/><circle cx="76" cy="104" r="4" fill="#fff"/>
</svg>